<svg xmlns="http://www.w3.org/2000/svg" xmlns:xlink="http://www.w3.org/1999/xlink" width="144" zoomAndPan="magnify" viewBox="0 0 108 30.000001" height="40" preserveAspectRatio="xMidYMid meet" version="1.0"><defs><g/></defs><g fill="#32332d" fill-opacity="1"><g transform="translate(43.326894, 26.785008)"><g><path d="M 5.078125 -22.953125 C 4.921875 -22.953125 4.773438 -23.007812 4.640625 -23.125 C 4.503906 -23.238281 4.4375 -23.367188 4.4375 -23.515625 C 4.4375 -23.609375 4.457031 -23.6875 4.5 -23.75 L 6.890625 -27.515625 C 7.046875 -27.828125 7.25 -27.984375 7.5 -27.984375 L 12.328125 -28.125 C 12.472656 -28.125 12.609375 -28.066406 12.734375 -27.953125 C 12.859375 -27.847656 12.921875 -27.722656 12.921875 -27.578125 C 12.921875 -27.429688 12.859375 -27.300781 12.734375 -27.1875 L 9.0625 -23.484375 C 8.894531 -23.316406 8.742188 -23.195312 8.609375 -23.125 C 8.484375 -23.050781 8.335938 -23.015625 8.171875 -23.015625 Z M 8.015625 -27.0625 C 8.015625 -27.039062 8.019531 -27.015625 8.03125 -26.984375 C 8.039062 -26.953125 8.035156 -26.90625 8.015625 -26.84375 C 8.035156 -26.800781 8.046875 -26.738281 8.046875 -26.65625 C 8.191406 -26.476562 8.335938 -26.390625 8.484375 -26.390625 C 8.484375 -26.410156 8.472656 -26.429688 8.453125 -26.453125 C 8.429688 -26.472656 8.410156 -26.484375 8.390625 -26.484375 C 8.347656 -26.535156 8.304688 -26.632812 8.265625 -26.78125 L 8.296875 -26.96875 Z M 8.8125 -26.90625 L 8.9375 -26.875 L 8.96875 -27.03125 L 8.84375 -27.0625 Z M 9.640625 -26.90625 L 9.734375 -26.90625 L 9.765625 -26.96875 L 9.671875 -26.96875 Z M 10.65625 -26.8125 L 10.8125 -26.78125 L 10.828125 -26.84375 L 10.6875 -26.875 Z M 7.625 -26.6875 L 7.6875 -26.5625 L 7.84375 -26.5625 C 7.757812 -26.644531 7.695312 -26.6875 7.65625 -26.6875 Z M 9.421875 -26.390625 L 9.515625 -26.359375 L 9.546875 -26.484375 L 9.453125 -26.5 Z M 8.75 -26.078125 C 8.707031 -26.054688 8.6875 -26.023438 8.6875 -25.984375 C 8.707031 -25.984375 8.726562 -25.972656 8.75 -25.953125 C 8.769531 -25.929688 8.800781 -25.921875 8.84375 -25.921875 L 8.9375 -25.953125 L 8.96875 -26.015625 L 8.78125 -26.109375 C 8.78125 -26.109375 8.773438 -26.101562 8.765625 -26.09375 C 8.753906 -26.082031 8.75 -26.078125 8.75 -26.078125 Z M 7.078125 -25.4375 C 7.035156 -25.394531 6.960938 -25.351562 6.859375 -25.3125 C 6.859375 -25.25 6.878906 -25.195312 6.921875 -25.15625 L 7.1875 -25.09375 C 7.351562 -25.15625 7.460938 -25.191406 7.515625 -25.203125 C 7.566406 -25.210938 7.59375 -25.238281 7.59375 -25.28125 L 7.59375 -25.34375 C 7.59375 -25.40625 7.578125 -25.484375 7.546875 -25.578125 C 7.515625 -25.671875 7.488281 -25.765625 7.46875 -25.859375 L 7.21875 -25.921875 L 7.046875 -25.953125 L 6.921875 -25.953125 C 6.960938 -25.828125 7.019531 -25.765625 7.09375 -25.765625 C 7.175781 -25.734375 7.257812 -25.644531 7.34375 -25.5 C 7.175781 -25.5 7.085938 -25.476562 7.078125 -25.4375 Z M 9.21875 -25.953125 C 9.15625 -25.953125 9.132812 -25.929688 9.15625 -25.890625 Z M 9 -25.5625 L 9.0625 -25.5625 L 9.09375 -25.625 L 9.0625 -25.6875 Z M 8.046875 -25.65625 C 7.960938 -25.59375 7.894531 -25.5 7.84375 -25.375 L 7.921875 -25.34375 L 7.953125 -25.28125 L 8.015625 -25.28125 Z M 8.84375 -25.40625 C 8.757812 -25.40625 8.695312 -25.414062 8.65625 -25.4375 C 8.632812 -25.4375 8.613281 -25.445312 8.59375 -25.46875 C 8.582031 -25.488281 8.546875 -25.5 8.484375 -25.5 C 8.441406 -25.519531 8.390625 -25.519531 8.328125 -25.5 C 8.265625 -25.476562 8.234375 -25.445312 8.234375 -25.40625 L 8.65625 -25.3125 C 8.71875 -25.269531 8.800781 -25.25 8.90625 -25.25 Z M 8.234375 -25.21875 C 8.234375 -25.195312 8.238281 -25.175781 8.25 -25.15625 C 8.257812 -25.132812 8.253906 -25.113281 8.234375 -25.09375 L 8.265625 -25.03125 L 8.484375 -24.984375 L 8.515625 -25.09375 L 8.390625 -25.25 L 8.359375 -25.21875 L 8.296875 -25.1875 Z M 7.984375 -24.859375 C 8.003906 -24.816406 8.035156 -24.796875 8.078125 -24.796875 C 8.160156 -24.796875 8.222656 -24.835938 8.265625 -24.921875 C 8.160156 -24.960938 8.109375 -24.992188 8.109375 -25.015625 L 8.046875 -25.015625 C 8.023438 -25.023438 7.992188 -25.03125 7.953125 -25.03125 L 7.890625 -24.890625 Z M 7.375 -24.765625 C 7.25 -24.890625 7.085938 -24.921875 6.890625 -24.859375 C 6.992188 -24.753906 7.0625 -24.691406 7.09375 -24.671875 C 7.257812 -24.628906 7.34375 -24.609375 7.34375 -24.609375 Z M 9.453125 -24.609375 L 9.21875 -24.671875 L 9.1875 -24.609375 L 9.421875 -24.546875 Z M 8.390625 -24.0625 C 8.453125 -24.0625 8.503906 -24.113281 8.546875 -24.21875 L 8.453125 -24.21875 C 8.429688 -24.238281 8.398438 -24.25 8.359375 -24.25 C 8.484375 -24.28125 8.503906 -24.347656 8.421875 -24.453125 L 8.171875 -24.515625 L 8.140625 -24.421875 L 8.109375 -24.421875 C 8.109375 -24.242188 8.203125 -24.125 8.390625 -24.0625 Z M 7.09375 -24.421875 C 7.113281 -24.421875 7.148438 -24.410156 7.203125 -24.390625 C 7.253906 -24.367188 7.28125 -24.367188 7.28125 -24.390625 C 7.257812 -24.410156 7.226562 -24.425781 7.1875 -24.4375 C 7.144531 -24.445312 7.113281 -24.441406 7.09375 -24.421875 Z M 7.6875 -24.328125 C 7.664062 -24.390625 7.644531 -24.421875 7.625 -24.421875 L 7.53125 -24.359375 C 7.53125 -24.335938 7.582031 -24.304688 7.6875 -24.265625 C 7.707031 -24.285156 7.707031 -24.304688 7.6875 -24.328125 Z M 7.1875 -24.25 C 7.144531 -24.257812 7.101562 -24.257812 7.0625 -24.25 C 7.03125 -24.25 7.015625 -24.226562 7.015625 -24.1875 Z M 6 -24.03125 C 5.976562 -24.007812 5.988281 -23.96875 6.03125 -23.90625 C 6.070312 -23.90625 6.101562 -23.882812 6.125 -23.84375 L 6.15625 -23.96875 Z M 13.921875 -21.328125 C 14.128906 -21.328125 14.289062 -21.265625 14.40625 -21.140625 C 14.53125 -21.023438 14.59375 -20.875 14.59375 -20.6875 L 14.515625 -17.046875 C 14.472656 -16.660156 14.273438 -16.457031 13.921875 -16.4375 L 5.515625 -15.546875 L 5.296875 -13.015625 L 11.59375 -13.34375 L 11.59375 -10.34375 L 11.71875 -10.34375 L 11.71875 -13.34375 C 11.882812 -13.34375 12.03125 -13.28125 12.15625 -13.15625 C 12.289062 -13.039062 12.359375 -12.898438 12.359375 -12.734375 L 12.359375 -9.546875 C 12.359375 -9.203125 12.1875 -9 11.84375 -8.9375 L 5.140625 -8.046875 L 4.984375 -5.515625 L 13.15625 -5.75 C 13.34375 -5.75 13.5 -5.6875 13.625 -5.5625 C 13.75 -5.445312 13.8125 -5.304688 13.8125 -5.140625 L 13.8125 -1.28125 C 13.8125 -0.894531 13.613281 -0.691406 13.21875 -0.671875 L 0.34375 0 C 0.15625 0 0 -0.0546875 -0.125 -0.171875 C -0.25 -0.285156 -0.3125 -0.441406 -0.3125 -0.640625 C -0.269531 -3.660156 -0.175781 -6.804688 -0.03125 -10.078125 C 0.113281 -13.066406 0.367188 -16.441406 0.734375 -20.203125 C 0.796875 -20.566406 1 -20.75 1.34375 -20.75 Z M 5.203125 -20.65625 L 5.265625 -20.65625 L 5.265625 -20.75 L 5.203125 -20.75 Z M 7.1875 -20.484375 C 7.164062 -20.460938 7.160156 -20.445312 7.171875 -20.4375 C 7.179688 -20.425781 7.207031 -20.421875 7.25 -20.421875 C 7.207031 -20.421875 7.1875 -20.441406 7.1875 -20.484375 Z M 7.78125 -19.953125 C 7.820312 -19.992188 7.84375 -20.035156 7.84375 -20.078125 C 7.84375 -20.160156 7.78125 -20.203125 7.65625 -20.203125 C 7.53125 -20.203125 7.4375 -20.160156 7.375 -20.078125 L 7.28125 -19.953125 C 7.34375 -19.992188 7.375 -20.035156 7.375 -20.078125 L 7.53125 -20.109375 C 7.65625 -20.085938 7.71875 -20.035156 7.71875 -19.953125 L 7.71875 -19.828125 C 7.71875 -19.867188 7.738281 -19.910156 7.78125 -19.953125 Z M 12.359375 -20.171875 L 12.3125 -20.171875 L 12.3125 -20.078125 L 12.359375 -20.078125 Z M 3.671875 -19.984375 L 4.3125 -19.984375 L 4.3125 -20.078125 L 3.671875 -20.078125 Z M 5.875 -20.078125 L 5.453125 -20.078125 L 5.453125 -20.046875 L 5.390625 -20.046875 C 5.285156 -20.003906 5.234375 -19.972656 5.234375 -19.953125 L 5.453125 -19.953125 L 5.484375 -19.984375 L 5.875 -19.984375 Z M 4.859375 -19.953125 L 4.953125 -19.953125 L 4.953125 -20.015625 L 4.859375 -20.015625 Z M 9.953125 -19.953125 L 9.703125 -19.953125 L 9.703125 -19.828125 L 9.953125 -19.828125 Z M 6.3125 -19.828125 C 6.269531 -19.828125 6.25 -19.78125 6.25 -19.6875 C 6.25 -19.6875 6.285156 -19.722656 6.359375 -19.796875 C 6.421875 -19.859375 6.40625 -19.867188 6.3125 -19.828125 Z M 8.328125 -19.75 L 8.203125 -19.75 L 8.203125 -19.6875 L 8.328125 -19.6875 Z M 3.390625 -19.21875 L 3.421875 -19.09375 L 3.421875 -19.03125 L 3.546875 -19.03125 C 3.546875 -19.050781 3.566406 -19.082031 3.609375 -19.125 C 3.648438 -19.164062 3.671875 -19.1875 3.671875 -19.1875 Z M 7.125 -18.796875 C 7.03125 -18.835938 6.984375 -18.878906 6.984375 -18.921875 L 6.984375 -18.953125 L 7.125 -19.09375 L 7.015625 -19.03125 L 6.953125 -19.03125 C 6.929688 -19.03125 6.914062 -19.023438 6.90625 -19.015625 C 6.894531 -19.015625 6.878906 -19.015625 6.859375 -19.015625 L 6.796875 -19.015625 C 6.691406 -18.972656 6.609375 -18.890625 6.546875 -18.765625 L 6.609375 -18.703125 L 6.984375 -18.703125 C 7.003906 -18.703125 7.019531 -18.707031 7.03125 -18.71875 C 7.039062 -18.726562 7.046875 -18.734375 7.046875 -18.734375 L 7.078125 -18.734375 Z M 8.171875 -18.703125 L 8.203125 -18.703125 L 8.234375 -18.671875 L 8.265625 -18.765625 L 8.171875 -18.765625 Z M 6.421875 -18.484375 L 6.359375 -18.671875 C 6.203125 -18.609375 6.125 -18.546875 6.125 -18.484375 C 6.1875 -18.460938 6.226562 -18.460938 6.25 -18.484375 Z M 7.78125 -18.25 C 7.78125 -18.28125 7.726562 -18.335938 7.625 -18.421875 L 7.53125 -18.25 Z M 9.03125 -18.21875 C 9.03125 -18.238281 9.007812 -18.265625 8.96875 -18.296875 L 8.90625 -18.359375 C 8.738281 -18.304688 8.65625 -18.25 8.65625 -18.1875 Z M 6.984375 -18.1875 C 6.859375 -18.25 6.765625 -18.28125 6.703125 -18.28125 C 6.597656 -18.28125 6.546875 -18.226562 6.546875 -18.125 L 6.703125 -18.03125 L 6.796875 -18 L 6.828125 -18 C 6.867188 -18 6.890625 -18.03125 6.890625 -18.09375 Z M 8.171875 -17.9375 C 8.210938 -17.894531 8.265625 -17.894531 8.328125 -17.9375 C 8.328125 -18.0625 8.285156 -18.132812 8.203125 -18.15625 L 7.953125 -18.09375 L 8.015625 -17.9375 Z M 1.75 -18.03125 L 1.71875 -18.03125 L 1.65625 -18 L 1.71875 -17.96875 Z M 7.4375 -17.75 C 7.5 -17.75 7.53125 -17.789062 7.53125 -17.875 C 7.53125 -17.957031 7.476562 -18 7.375 -18 L 7.3125 -17.96875 L 7.28125 -17.96875 L 7.25 -17.9375 C 7.207031 -17.894531 7.1875 -17.851562 7.1875 -17.8125 L 7.21875 -17.75 Z M 12 -17.96875 L 11.9375 -17.96875 L 11.9375 -17.8125 L 12 -17.8125 Z M 7.375 -16.46875 L 7.3125 -16.46875 L 7.3125 -16.375 L 7.375 -16.375 Z M 4.890625 -16.375 C 4.859375 -16.375 4.84375 -16.34375 4.84375 -16.28125 L 4.890625 -16.28125 L 4.921875 -16.3125 C 4.898438 -16.3125 4.890625 -16.332031 4.890625 -16.375 Z M 4.71875 -14.875 C 4.675781 -14.832031 4.65625 -14.8125 4.65625 -14.8125 L 4.8125 -14.78125 C 4.832031 -14.800781 4.832031 -14.851562 4.8125 -14.9375 C 4.789062 -14.9375 4.757812 -14.914062 4.71875 -14.875 Z M 4.859375 -14.265625 L 4.890625 -14.296875 L 4.75 -14.328125 L 4.75 -14.296875 Z M 5.046875 -13.046875 L 5.203125 -13.046875 L 5.203125 -13.1875 L 5.046875 -13.1875 Z M 5.140625 -12.640625 C 5.078125 -12.640625 5.035156 -12.648438 5.015625 -12.671875 L 4.890625 -12.703125 L 4.859375 -12.671875 C 4.804688 -12.648438 4.78125 -12.609375 4.78125 -12.546875 C 4.78125 -12.441406 4.859375 -12.390625 5.015625 -12.390625 C 5.078125 -12.390625 5.117188 -12.398438 5.140625 -12.421875 Z M 7.46875 -12.453125 L 7.5 -12.453125 L 7.5 -12.484375 Z M 11.84375 -12.0625 C 11.90625 -12.0625 11.957031 -12.050781 12 -12.03125 L 12.15625 -12 L 12.28125 -12.15625 L 12.28125 -12.390625 C 12.257812 -12.410156 12.222656 -12.429688 12.171875 -12.453125 C 12.117188 -12.472656 12.070312 -12.484375 12.03125 -12.484375 L 11.84375 -12.359375 Z M 7.625 -12.421875 L 7.6875 -12.453125 L 7.625 -12.453125 Z M 6.828125 -12.125 L 6.984375 -12 C 7.023438 -12.019531 7.050781 -12.054688 7.0625 -12.109375 C 7.070312 -12.160156 7.054688 -12.195312 7.015625 -12.21875 Z M 7.625 -12.09375 L 7.75 -12.03125 L 7.8125 -12.21875 L 7.6875 -12.21875 Z M 5.8125 -11.875 C 5.9375 -11.914062 5.9375 -11.976562 5.8125 -12.0625 Z M 5.359375 -11.6875 L 5.484375 -11.578125 L 5.625 -11.546875 L 5.65625 -11.578125 L 5.71875 -11.578125 L 5.71875 -11.71875 C 5.632812 -11.71875 5.578125 -11.738281 5.546875 -11.78125 L 5.484375 -11.75 C 5.484375 -11.75 5.476562 -11.742188 5.46875 -11.734375 C 5.457031 -11.722656 5.453125 -11.71875 5.453125 -11.71875 Z M 6.828125 -11.71875 L 6.890625 -11.59375 L 7.09375 -11.59375 L 7.015625 -11.65625 L 6.890625 -11.75 Z M 4.8125 -11.625 C 4.789062 -11.644531 4.75 -11.664062 4.6875 -11.6875 C 4.625 -11.707031 4.570312 -11.71875 4.53125 -11.71875 C 4.53125 -11.675781 4.5625 -11.632812 4.625 -11.59375 C 4.664062 -11.5625 4.753906 -11.546875 4.890625 -11.546875 L 4.984375 -11.546875 L 4.984375 -11.625 Z M 6.765625 -11.265625 L 7.015625 -11.265625 C 7.054688 -11.285156 7.078125 -11.316406 7.078125 -11.359375 L 7.078125 -11.484375 L 6.828125 -11.484375 L 6.796875 -11.359375 Z M 4.59375 -11.078125 C 4.59375 -11.054688 4.597656 -11.039062 4.609375 -11.03125 C 4.617188 -11.019531 4.632812 -11.023438 4.65625 -11.046875 L 4.75 -11.078125 L 4.6875 -11.109375 L 4.65625 -11.109375 C 4.613281 -11.109375 4.59375 -11.097656 4.59375 -11.078125 Z M 4.21875 -10.5 C 4.320312 -10.5 4.394531 -10.519531 4.4375 -10.5625 C 4.394531 -10.5625 4.351562 -10.582031 4.3125 -10.625 L 4.28125 -10.65625 L 4.125 -10.65625 C 4.070312 -10.59375 4.046875 -10.53125 4.046875 -10.46875 Z M 4.65625 -10.34375 C 4.550781 -10.34375 4.40625 -10.363281 4.21875 -10.40625 L 4.125 -10.34375 L 4.21875 -10.21875 C 4.257812 -10.320312 4.3125 -10.351562 4.375 -10.3125 C 4.5 -10.3125 4.59375 -10.320312 4.65625 -10.34375 Z M 3.34375 -10.34375 C 3.28125 -10.320312 3.25 -10.28125 3.25 -10.21875 L 3.34375 -10.15625 L 3.453125 -10.1875 C 3.453125 -10.226562 3.484375 -10.257812 3.546875 -10.28125 L 3.453125 -10.3125 Z M 11.65625 -9.515625 L 11.78125 -9.671875 L 11.84375 -9.796875 L 11.78125 -10.015625 C 11.757812 -10.035156 11.71875 -10.125 11.65625 -10.28125 Z M 4.625 -9.796875 C 4.625 -9.835938 4.6875 -9.9375 4.8125 -10.09375 L 4.6875 -10.125 L 4.5625 -10.125 C 4.5 -10.125 4.4375 -10.109375 4.375 -10.078125 L 4.125 -9.984375 C 4.1875 -9.960938 4.242188 -9.941406 4.296875 -9.921875 C 4.347656 -9.898438 4.382812 -9.878906 4.40625 -9.859375 C 4.363281 -9.753906 4.351562 -9.679688 4.375 -9.640625 L 4.65625 -9.703125 Z M 3.796875 -9.859375 C 3.859375 -9.816406 3.910156 -9.816406 3.953125 -9.859375 L 3.921875 -9.890625 L 3.859375 -9.921875 L 3.796875 -9.890625 Z M 4.78125 -9.890625 C 4.800781 -9.828125 4.820312 -9.785156 4.84375 -9.765625 C 4.875 -9.742188 4.921875 -9.734375 4.984375 -9.734375 C 5.003906 -9.734375 5.078125 -9.753906 5.203125 -9.796875 L 5.109375 -9.890625 Z M 3.859375 -9.796875 C 3.734375 -9.734375 3.703125 -9.679688 3.765625 -9.640625 L 3.796875 -9.515625 C 3.878906 -9.515625 3.941406 -9.535156 3.984375 -9.578125 C 3.984375 -9.660156 3.941406 -9.734375 3.859375 -9.796875 Z M 5.234375 -9.484375 L 5.078125 -9.484375 C 5.015625 -9.484375 4.984375 -9.460938 4.984375 -9.421875 C 4.984375 -9.378906 4.960938 -9.359375 4.921875 -9.359375 C 4.921875 -9.460938 4.894531 -9.523438 4.84375 -9.546875 L 4.65625 -9.546875 C 4.65625 -9.503906 4.675781 -9.484375 4.71875 -9.484375 L 4.8125 -9.390625 L 4.59375 -9.3125 L 4.4375 -9.1875 C 4.457031 -9.164062 4.484375 -9.15625 4.515625 -9.15625 C 4.546875 -9.15625 4.570312 -9.144531 4.59375 -9.125 L 4.84375 -9.125 C 4.914062 -9.125 5.046875 -9.164062 5.234375 -9.25 Z M 4.125 -9.359375 C 4.070312 -9.359375 4.023438 -9.320312 3.984375 -9.25 C 3.941406 -9.1875 3.921875 -9.125 3.921875 -9.0625 L 3.921875 -8.90625 C 4.023438 -8.820312 4.113281 -8.78125 4.1875 -8.78125 L 4.28125 -8.78125 L 4.375 -8.84375 L 4.375 -9.25 L 4.25 -9.328125 Z M 3.640625 -9.21875 C 3.617188 -9.21875 3.585938 -9.203125 3.546875 -9.171875 C 3.503906 -9.140625 3.484375 -9.113281 3.484375 -9.09375 C 3.566406 -9.070312 3.640625 -9.070312 3.703125 -9.09375 Z M 10.4375 -9.03125 L 10.8125 -9.03125 L 10.8125 -9.125 L 10.4375 -9.125 Z M 5.078125 -8.9375 C 5.117188 -8.9375 5.140625 -8.96875 5.140625 -9.03125 L 4.953125 -9.03125 L 4.890625 -8.9375 Z M 3.390625 -8.90625 C 3.296875 -8.882812 3.25 -8.84375 3.25 -8.78125 L 3.390625 -8.78125 C 3.410156 -8.800781 3.410156 -8.84375 3.390625 -8.90625 Z M 4.8125 -8.71875 C 4.84375 -8.695312 4.898438 -8.6875 4.984375 -8.6875 C 4.984375 -8.75 4.941406 -8.800781 4.859375 -8.84375 Z M 3.921875 -8.71875 C 3.835938 -8.632812 3.796875 -8.578125 3.796875 -8.546875 L 4.078125 -8.515625 L 4.125 -8.625 C 4.09375 -8.664062 4.078125 -8.695312 4.078125 -8.71875 Z M 4.4375 -8.484375 L 4.40625 -8.65625 C 4.300781 -8.65625 4.25 -8.617188 4.25 -8.546875 L 4.25 -8.421875 Z M 5.015625 -8.421875 C 5.015625 -8.460938 4.992188 -8.484375 4.953125 -8.484375 L 4.890625 -8.546875 C 4.859375 -8.523438 4.769531 -8.515625 4.625 -8.515625 L 4.5 -8.484375 L 4.4375 -8.453125 L 4.59375 -8.328125 C 4.71875 -8.367188 4.789062 -8.390625 4.8125 -8.390625 Z M 4.53125 -8.109375 L 4.625 -8.171875 L 4.375 -8.234375 L 4.375 -8.109375 Z M 4.3125 -8.109375 C 4.226562 -8.148438 4.148438 -8.171875 4.078125 -8.171875 L 4.125 -8.046875 C 4.207031 -8.046875 4.269531 -8.066406 4.3125 -8.109375 Z M 3.953125 -7.921875 C 3.953125 -7.898438 3.929688 -7.875 3.890625 -7.84375 L 4.21875 -7.8125 C 4.257812 -7.8125 4.28125 -7.835938 4.28125 -7.890625 Z M 3.640625 -7.71875 C 3.679688 -7.65625 3.742188 -7.625 3.828125 -7.625 L 3.703125 -7.859375 L 3.484375 -7.84375 Z M 4.15625 -7.4375 C 4.125 -7.519531 4.113281 -7.570312 4.125 -7.59375 C 4.144531 -7.65625 4.144531 -7.695312 4.125 -7.71875 L 4.046875 -7.625 C 4.023438 -7.625 4.015625 -7.601562 4.015625 -7.5625 L 4.015625 -7.4375 Z M 4.78125 -7.5 C 4.875 -7.5 4.921875 -7.539062 4.921875 -7.625 L 4.78125 -7.625 Z M 3.15625 -7.59375 C 3.09375 -7.570312 3.0625 -7.539062 3.0625 -7.5 L 3.25 -7.4375 C 3.25 -7.476562 3.257812 -7.507812 3.28125 -7.53125 L 3.3125 -7.5625 Z M 4.015625 -7.375 L 4.015625 -7.25 L 4.109375 -7.25 L 4.109375 -7.375 Z M 4.15625 -7.3125 C 4.15625 -7.269531 4.164062 -7.25 4.1875 -7.25 L 4.21875 -7.1875 L 4.4375 -7.25 C 4.414062 -7.25 4.40625 -7.269531 4.40625 -7.3125 L 4.40625 -7.34375 C 4.363281 -7.34375 4.332031 -7.335938 4.3125 -7.328125 C 4.289062 -7.316406 4.269531 -7.3125 4.25 -7.3125 Z M 4.65625 -7.046875 L 4.46875 -7.046875 L 4.46875 -6.921875 L 4.65625 -6.921875 Z M 2.90625 -6.859375 C 2.863281 -6.796875 2.875 -6.734375 2.9375 -6.671875 C 3.039062 -6.710938 3.09375 -6.773438 3.09375 -6.859375 Z M 3.546875 -6.640625 L 3.609375 -6.609375 C 3.648438 -6.609375 3.679688 -6.617188 3.703125 -6.640625 L 3.671875 -6.796875 L 3.609375 -6.796875 C 3.609375 -6.796875 3.601562 -6.789062 3.59375 -6.78125 C 3.582031 -6.769531 3.578125 -6.765625 3.578125 -6.765625 L 3.515625 -6.765625 L 3.515625 -6.640625 Z M 2.90625 -6.15625 C 2.988281 -6.15625 3.039062 -6.164062 3.0625 -6.1875 C 3.0625 -6.207031 3.066406 -6.222656 3.078125 -6.234375 C 3.085938 -6.242188 3.101562 -6.257812 3.125 -6.28125 L 3.03125 -6.34375 L 2.875 -6.28125 Z M 3.796875 -6.21875 L 3.640625 -6.21875 L 3.640625 -6.1875 L 3.765625 -6.15625 Z M 3.3125 -5.84375 C 3.34375 -5.800781 3.390625 -5.78125 3.453125 -5.78125 L 3.453125 -5.875 C 3.453125 -5.875 3.453125 -5.90625 3.453125 -5.96875 C 3.390625 -5.96875 3.34375 -5.925781 3.3125 -5.84375 Z M 6 -4.6875 L 6.25 -4.6875 L 6.25 -4.75 L 6 -4.75 Z M 7.21875 -4.65625 C 7.125 -4.59375 7.078125 -4.5625 7.078125 -4.5625 C 7.128906 -4.539062 7.15625 -4.5 7.15625 -4.4375 L 7.3125 -4.4375 C 7.351562 -4.476562 7.375 -4.507812 7.375 -4.53125 L 7.40625 -4.59375 L 7.34375 -4.75 C 7.34375 -4.726562 7.332031 -4.707031 7.3125 -4.6875 C 7.289062 -4.664062 7.257812 -4.65625 7.21875 -4.65625 Z M 8.96875 -4.53125 L 9.03125 -4.53125 L 9.0625 -4.59375 L 9.03125 -4.625 Z M 6.359375 -4.59375 L 6.1875 -4.59375 L 6.1875 -4.53125 L 6.359375 -4.53125 Z M 7.78125 -4.34375 L 7.890625 -4.375 C 7.890625 -4.394531 7.878906 -4.40625 7.859375 -4.40625 C 7.859375 -4.40625 7.84375 -4.425781 7.8125 -4.46875 Z M 6 -4.28125 L 6.0625 -4.21875 C 6.164062 -4.257812 6.1875 -4.300781 6.125 -4.34375 C 6.082031 -4.34375 6.0625 -4.332031 6.0625 -4.3125 L 6 -4.3125 Z M 7.078125 -4.21875 C 7.035156 -4.257812 6.984375 -4.28125 6.921875 -4.28125 L 6.984375 -4.078125 C 6.984375 -4.078125 6.988281 -4.082031 7 -4.09375 C 7.007812 -4.101562 7.015625 -4.109375 7.015625 -4.109375 C 7.035156 -4.109375 7.046875 -4.125 7.046875 -4.15625 C 7.066406 -4.15625 7.078125 -4.175781 7.078125 -4.21875 Z M 7.65625 -4.15625 C 7.550781 -4.125 7.5 -4.078125 7.5 -4.015625 L 7.65625 -4.015625 C 7.65625 -4.054688 7.664062 -4.085938 7.6875 -4.109375 Z M 3.3125 -3.703125 L 3.3125 -3.515625 C 3.3125 -3.515625 3.328125 -3.535156 3.359375 -3.578125 L 3.484375 -3.703125 Z M 3.921875 -3.703125 C 3.921875 -3.640625 3.972656 -3.609375 4.078125 -3.609375 L 4.078125 -3.671875 C 4.078125 -3.691406 4.085938 -3.703125 4.109375 -3.703125 Z M 5.515625 -3.609375 L 5.578125 -3.484375 L 5.625 -3.484375 L 5.546875 -3.609375 Z M 8.453125 -3.515625 C 8.453125 -3.410156 8.5 -3.359375 8.59375 -3.359375 L 8.65625 -3.453125 L 8.6875 -3.515625 Z M 7.375 -3.453125 L 7.3125 -3.453125 L 7.28125 -3.359375 L 7.375 -3.359375 Z M 6.390625 -3.28125 C 6.390625 -3.28125 6.394531 -3.285156 6.40625 -3.296875 C 6.414062 -3.304688 6.421875 -3.3125 6.421875 -3.3125 L 6.359375 -3.359375 L 6.3125 -3.359375 L 6.359375 -3.25 C 6.359375 -3.25 6.363281 -3.253906 6.375 -3.265625 C 6.382812 -3.273438 6.390625 -3.28125 6.390625 -3.28125 Z M 3.734375 -2.9375 L 3.484375 -2.9375 L 3.484375 -2.78125 L 3.734375 -2.78125 Z M 0.921875 -2.265625 C 0.921875 -2.367188 0.953125 -2.429688 1.015625 -2.453125 L 0.609375 -2.453125 L 0.609375 -2.265625 Z M 12.0625 -2.328125 L 12.421875 -2.265625 L 12.421875 -2.359375 L 12.125 -2.453125 Z M 2.90625 -2.390625 L 2.578125 -2.390625 L 2.578125 -2.265625 L 2.90625 -2.265625 Z M 4.921875 -2.265625 L 4.921875 -2.109375 L 5.171875 -2.109375 L 5.171875 -2.265625 Z M 6.609375 -2.140625 C 6.585938 -2.097656 6.578125 -2.015625 6.578125 -1.890625 L 6.609375 -1.75 L 7.046875 -1.75 L 7.09375 -1.859375 C 7.113281 -1.878906 7.125 -1.921875 7.125 -1.984375 L 6.984375 -2.140625 Z M 1.890625 -1.984375 L 2.234375 -1.984375 L 2.234375 -2.109375 L 1.890625 -2.109375 Z M 3.25 -1.34375 C 3.3125 -1.363281 3.359375 -1.421875 3.390625 -1.515625 C 3.429688 -1.609375 3.453125 -1.707031 3.453125 -1.8125 C 3.453125 -1.925781 3.421875 -2.015625 3.359375 -2.078125 C 3.328125 -2.078125 3.25 -2.046875 3.125 -1.984375 C 3.207031 -1.804688 3.25 -1.59375 3.25 -1.34375 Z M 0.1875 -1.78125 C 0.207031 -1.71875 0.257812 -1.691406 0.34375 -1.703125 C 0.4375 -1.710938 0.503906 -1.738281 0.546875 -1.78125 Z M 1.46875 -1.65625 L 1.40625 -1.65625 L 1.40625 -1.78125 L 1.125 -1.78125 L 1.125 -1.65625 L 1.40625 -1.65625 L 1.40625 -1.53125 L 1.46875 -1.53125 Z M 4.65625 -1.59375 C 4.488281 -1.59375 4.375 -1.582031 4.3125 -1.5625 L 4.125 -1.5 L 3.984375 -1.46875 C 4.023438 -1.445312 4.0625 -1.410156 4.09375 -1.359375 C 4.132812 -1.304688 4.164062 -1.257812 4.1875 -1.21875 C 4.289062 -1.28125 4.394531 -1.363281 4.5 -1.46875 Z M 2.578125 -1.3125 C 2.609375 -1.375 2.625 -1.4375 2.625 -1.5 L 2.109375 -1.5 L 2.109375 -1.21875 C 2.273438 -1.21875 2.421875 -1.195312 2.546875 -1.15625 Z M 8.171875 -1.34375 L 8.390625 -1.34375 L 8.390625 -1.40625 L 8.171875 -1.40625 Z M 12.0625 -0.953125 C 12.0625 -0.890625 12.039062 -0.859375 12 -0.859375 C 12.0625 -0.859375 12.125 -0.890625 12.1875 -0.953125 Z M 2.203125 -0.890625 L 1.953125 -0.890625 L 1.953125 -0.765625 L 2.203125 -0.765625 Z M 2.203125 -0.890625 "/></g></g></g><g fill="#32332d" fill-opacity="1"><g transform="translate(58.22825, 26.785008)"><g><path d="M 1.125 -4.921875 L 1.125 -5.203125 C 0.695312 -4.972656 0.347656 -4.664062 0.078125 -4.28125 C -0.179688 -3.894531 -0.3125 -3.414062 -0.3125 -2.84375 C -0.3125 -2.050781 -0.0351562 -1.378906 0.515625 -0.828125 C 1.066406 -0.273438 1.710938 0 2.453125 0 C 3.179688 0 3.820312 -0.273438 4.375 -0.828125 C 4.925781 -1.378906 5.203125 -2.019531 5.203125 -2.75 C 5.203125 -3.613281 4.925781 -4.289062 4.375 -4.78125 C 3.820312 -5.269531 3.171875 -5.515625 2.421875 -5.515625 C 1.972656 -5.515625 1.59375 -5.441406 1.28125 -5.296875 L 1.28125 -4.921875 Z M 1.71875 -4.15625 C 1.632812 -4.238281 1.59375 -4.320312 1.59375 -4.40625 L 1.71875 -4.625 C 1.738281 -4.601562 1.757812 -4.546875 1.78125 -4.453125 C 1.800781 -4.359375 1.820312 -4.28125 1.84375 -4.21875 Z M 4.3125 -3.484375 L 4.28125 -3.484375 L 4.21875 -3.515625 L 4.25 -3.546875 Z M 4.34375 -2.265625 C 4.257812 -2.265625 4.207031 -2.253906 4.1875 -2.234375 L 3.984375 -2.265625 L 4.15625 -2.484375 C 4.195312 -2.484375 4.21875 -2.472656 4.21875 -2.453125 L 4.3125 -2.453125 L 4.34375 -2.390625 Z M 2.8125 -1.984375 L 2.578125 -1.984375 L 2.578125 -2.046875 L 2.8125 -2.046875 Z M 0.984375 -1.8125 L 0.984375 -1.71875 C 0.835938 -1.71875 0.765625 -1.75 0.765625 -1.8125 C 0.765625 -1.882812 0.796875 -1.953125 0.859375 -2.015625 L 1.015625 -2.015625 L 1.015625 -1.859375 Z M 4.21875 -1.78125 C 4.195312 -1.757812 4.117188 -1.726562 3.984375 -1.6875 C 3.921875 -1.726562 3.890625 -1.785156 3.890625 -1.859375 C 3.890625 -1.960938 3.921875 -2.015625 3.984375 -2.015625 L 4.15625 -2.015625 L 4.1875 -1.890625 Z M 2.6875 -1.015625 L 2.6875 -0.796875 L 2.390625 -0.859375 L 2.453125 -1.015625 Z M 2.6875 -1.015625 "/></g></g></g></svg>